# Blender 5.1.1
# www.blender.org
mtllib debris.mtl
o Cube_cell.059
v 0.295468 0.260163 0.128155
v -0.293503 0.519706 0.249382
v -0.211936 0.158984 -0.255946
v -0.346869 0.484969 0.173040
v 0.286894 0.036833 -0.211275
v 0.375547 0.093237 -0.086637
v 0.304783 -0.024583 -0.183917
v 0.375970 -0.020871 -0.080619
v 0.313406 -0.013490 0.097362
v 0.279524 -0.025873 -0.219878
v -0.192429 -0.025573 -0.275697
v 0.168961 -0.025809 -0.233105
v 0.287639 -0.010468 0.170192
v 0.235642 -0.009639 0.184152
v -0.247217 -0.001971 0.312918
v -0.252418 -0.002237 0.305493
v -0.318006 -0.005625 0.211139
v 0.304783 -0.024583 -0.183917
v 0.375970 -0.020871 -0.080619
v 0.313406 -0.013490 0.097362
v 0.279524 -0.025873 -0.219878
v -0.192429 -0.025573 -0.275697
v 0.168961 -0.025809 -0.233105
v 0.287639 -0.010468 0.170192
v 0.235642 -0.009639 0.184152
v -0.247217 -0.001971 0.312918
v -0.252418 -0.002237 0.305493
v -0.318006 -0.005625 0.211139
vn 0.8236 -0.0268 -0.5666
vn 0.9435 0.0209 0.3308
vn 0.8185 -0.0174 -0.5743
vn 0.1163 0.1178 -0.9862
vn 0.1180 0.1213 -0.9856
vn 0.2456 0.8056 -0.5392
vn 0.9428 0.0244 0.3325
vn 0.2588 0.1409 0.9556
vn 0.2572 0.1393 0.9563
vn -0.8190 -0.0028 0.5738
vn -0.8210 -0.0040 0.5709
vn 0.2429 0.8076 -0.5373
vn -0.0053 -0.9992 0.0396
vn -0.9662 -0.0759 -0.2462
vn 0.2452 0.8074 -0.5366
vt 1.000000 0.000000
vt 1.000000 0.693522
vt 0.306105 0.000000
vt 0.000000 0.000000
vt 0.695499 0.000000
vt 0.693522 0.693522
vt 0.553005 0.553005
vt 1.000000 0.693895
vt 1.000000 0.784542
vt 0.212706 0.000000
vt 1.000000 0.553005
vt 0.784542 0.784542
vt 1.000000 1.000000
vt 0.844722 0.000000
vt 1.000000 0.304501
vt 1.000000 0.912786
vt 0.844722 0.844722
vt 0.912786 0.912786
vt 0.912599 0.000000
vt 1.000000 0.907441
vt 0.912599 0.912599
vt 0.907847 0.000000
vt 0.907441 0.907441
vt 0.576268 0.524903
vt 0.594279 0.526199
vt 0.604895 0.559764
vt 1.000000 0.787294
vt 0.907847 0.907847
vt 0.604276 0.569408
vt 0.598498 0.572859
vt 0.544807 0.604803
vt 0.543929 0.604086
vt 0.532827 0.594962
vt 0.531352 0.532083
vt 0.590016 0.522730
vt 0.606358 0.536209
s 0
usemtl Material
f 6/1/1 19/2/1 18/3/1
f 6/4/2 20/5/2 19/6/2
f 21/7/3 5/4/3 6/1/3 18/8/3
f 3/1/4 23/9/4 22/10/4
f 5/1/5 21/11/5 23/12/5 3/4/5
f 5/4/6 3/1/6 6/13/6
f 6/13/7 1/4/7 24/14/7 20/15/7
f 25/16/8 24/17/8 1/4/8 2/1/8
f 25/18/9 2/4/9 26/19/9
f 2/4/10 4/1/10 27/20/10 26/21/10
f 4/4/11 28/22/11 27/23/11
f 4/4/12 2/1/12 3/13/12
f 12/24/13 7/25/13 9/26/13
f 3/1/14 22/27/14 28/28/14 4/4/14
f 2/4/15 1/1/15 6/13/15 3/4/15
f 13/29/13 14/30/13 9/26/13
f 14/30/13 15/31/13 16/32/13
f 9/26/13 14/30/13 12/24/13
f 16/32/13 17/33/13 14/30/13
f 17/33/13 11/34/13 14/30/13
f 11/34/13 12/24/13 14/30/13
f 12/24/13 10/35/13 7/25/13
f 7/25/13 8/36/13 9/26/13
